<svg width="700" height="700" id="fullpicture" style="font-family: &quot;Roboto Mono Bold&quot;;" xmlns="http://www.w3.org/2000/svg" xmlns:xlink="http://www.w3.org/1999/xlink">
    <defs>
        <linearGradient id="gradient_S0_G0" x1="0%" y1="100%" x2="0%" y2="0%">
            <stop offset="0%" stop-color="#ee378c" stop-opacity="0"></stop>
            <stop offset="100%" stop-color="#ee378c" stop-opacity="1"></stop>
        </linearGradient>
        <linearGradient id="gradient_S1_G0" x1="0%" y1="100%" x2="0%" y2="0%">
            <stop offset="0%" stop-color="#ee378c" stop-opacity="0"></stop>
            <stop offset="100%" stop-color="#ee378c" stop-opacity="1"></stop>
        </linearGradient>
        <linearGradient id="gradient_S2_G0" x1="0%" y1="100%" x2="0%" y2="0%">
            <stop offset="0%" stop-color="#FBBC3B" stop-opacity="0"></stop>
            <stop offset="100%" stop-color="#FBBC3B" stop-opacity="1"></stop>
        </linearGradient>
        <linearGradient id="gradient_S3_G0" x1="0%" y1="100%" x2="0%" y2="0%">
            <stop offset="0%" stop-color="#ee378c" stop-opacity="0"></stop>
            <stop offset="100%" stop-color="#ee378c" stop-opacity="1"></stop>
        </linearGradient>
    </defs>
    <rect width="100%" height="100%" x="0" y="0" fill="#eee5d5"></rect>
    <image xlink:href="gallery/bar-window/ia2.jpg" width="100%" height="100%" x="0" y="0"></image>
    <g transform="translate(0,150)">
        <line x1="0" y1="0" x2="0" y2="282" fill="none" stroke="#040723" stroke-width="4.68" opacity="1" display="none"
            transform="translate(121.66,-40)"></line>
        <line x1="0" y1="0" x2="0" y2="282" fill="none" stroke="#040723" stroke-width="4.68" opacity="1" display="block"
            transform="translate(212.23999999999998,-40)"></line>
        <line x1="0" y1="0" x2="0" y2="282" fill="none" stroke="#040723" stroke-width="4.68" opacity="1" display="block"
            transform="translate(302.82,-40)"></line>
        <line x1="0" y1="0" x2="0" y2="282" fill="none" stroke="#040723" stroke-width="4.68" opacity="1" display="block"
            transform="translate(393.40000000000003,-40)"></line>
        <line x1="0" y1="0" x2="0" y2="282" fill="none" stroke="#040723" stroke-width="4.68" opacity="1" display="block"
            transform="translate(483.98,-40)"></line>
        <defs>
            <clipPath id="clip" transform="translate(0,147)">
                <rect x="0" y="49" height="196" width="86.32" transform="translate(124,0)"
                    style="fill: rgb(36, 219, 225);"></rect>
                <rect x="0" y="-7" height="252" width="86.32" transform="translate(214.57999999999998,0)"
                    style="fill: rgb(36, 219, 225);"></rect>
                <rect x="0" y="-35" height="280" width="86.32" transform="translate(305.15999999999997,0)"
                    style="fill: rgb(36, 219, 225);"></rect>
                <rect x="0" y="-7" height="252" width="86.32" transform="translate(395.74,0)"
                    style="fill: rgb(36, 219, 225);"></rect>
                <rect x="0" y="77" height="168" width="86.32" transform="translate(486.32,0)"
                    style="fill: rgb(36, 219, 225);"></rect>
                <polygon
                    points="0, 0, 86.32, 0,233.31999999999996,156.79999999999998,146.99999999999997 ,156.79999999999998"
                    fill="url(#gradient_S0_G0)" opacity="0.8" transform="translate(124,258)"></polygon>
                <polygon points="0, 0, 86.32, 0,275.32,201.6,189 ,201.6" fill="url(#gradient_S0_G0)" opacity="0.8"
                    transform="translate(214.57999999999998,258)"></polygon>
                <polygon points="0, 0, 86.32, 0,296.32,224,210 ,224" fill="url(#gradient_S0_G0)" opacity="0.8"
                    transform="translate(305.15999999999997,258)"></polygon>
                <polygon points="0, 0, 86.32, 0,275.32,201.6,189 ,201.6" fill="url(#gradient_S0_G0)" opacity="0.8"
                    transform="translate(395.74,258)"></polygon>
                <polygon points="0, 0, 86.32, 0,212.32,134.4,126 ,134.4" fill="url(#gradient_S0_G0)" opacity="0.8"
                    transform="translate(486.32,258)"></polygon>
            </clipPath>
        </defs><text x="43.16" y="49" font-size="16" fill="#24DBE1" transform="translate(124,-8)"
            style="text-anchor: middle;">7</text><text x="43.16" y="-7" font-size="16" fill="#24DBE1"
            transform="translate(214.57999999999998,-8)" style="text-anchor: middle;">9</text><text x="43.16" y="-35"
            font-size="16" fill="#24DBE1" transform="translate(305.15999999999997,-8)"
            style="text-anchor: middle;">10</text><text x="43.16" y="-7" font-size="16" fill="#24DBE1"
            transform="translate(395.74,-8)" style="text-anchor: middle;">9</text><text x="43.16" y="77" font-size="16"
            fill="#24DBE1" transform="translate(486.32,-8)" style="text-anchor: middle;">6</text><text x="104" y="260"
            font-size="14" fill="#F153F0" style="text-anchor: end;" transform="translate(10,-14)">
            <tspan x="104" y="260" dy="0em"></tspan>
            <tspan x="104" y="260" dy="14">2015</tspan>
        </text><text x="581.3199999999999" y="260" font-size="14" fill="#F153F0" style="text-anchor: start;"
            transform="translate(10,-14)">
            <tspan x="581.3199999999999" y="260" dy="0em"></tspan>
            <tspan x="581.3199999999999" y="260" dy="14">2019</tspan>
        </text>
    </g>
    <image clip-path="url(#clip)" xlink:href="gallery/bar-window/ia1.jpg" width="100%" height="100%"></image>
   
       <text x="160" y="40" font-size="14" opacity="0.7" fill="#24DBE1" class="title fontBold"
        style="text-anchor: start;">Untitled chart</text><text x="160" y="60" font-size="12" opacity="0.7"
        fill="#24DBE1" class="unit fontReg" transform="translate(0,0)"
        style="text-anchor: start;">(subtitle)</text><text x="40" y="674" font-size="12" fill="#24DBE1" opacity="0.7"
        class="datasrc fontReg" style="text-anchor: start;">source: credit your data source</text>
</svg>