<svg width="700" height="700" id="fullpicture" style="font-family: &quot;Roboto Mono Bold&quot;;">
    <defs>
        <linearGradient id="gradient_S0_G0" x1="0%" y1="100%" x2="0%" y2="0%">
            <stop offset="0%" stop-color="#ee378c" stop-opacity="0"></stop>
            <stop offset="100%" stop-color="#ee378c" stop-opacity="1"></stop>
        </linearGradient>
        <linearGradient id="gradient_S1_G0" x1="0%" y1="100%" x2="0%" y2="0%">
            <stop offset="0%" stop-color="#ee378c" stop-opacity="0"></stop>
            <stop offset="100%" stop-color="#ee378c" stop-opacity="1"></stop>
        </linearGradient>
        <linearGradient id="gradient_S2_G0" x1="0%" y1="100%" x2="0%" y2="0%">
            <stop offset="0%" stop-color="#FBBC3B" stop-opacity="0"></stop>
            <stop offset="100%" stop-color="#FBBC3B" stop-opacity="1"></stop>
        </linearGradient>
        <linearGradient id="gradient_S3_G0" x1="0%" y1="100%" x2="0%" y2="0%">
            <stop offset="0%" stop-color="#ee378c" stop-opacity="0"></stop>
            <stop offset="100%" stop-color="#ee378c" stop-opacity="1"></stop>
        </linearGradient>
    </defs>
    <rect width="100%" height="100%" x="0" y="0" fill="#eee5d5"></rect>
    <image xlink:href="https://plotparade.com/55_window/img/ia2.jpg" width="100%" height="100%" x="0" y="0"></image>
    <g transform="translate(0,150)">
        <line x1="0" y1="0" x2="0" y2="282" fill="none" stroke="#040723" stroke-width="4.6" opacity="1" display="none"
            transform="translate(121.7,-40)"></line>
        <line x1="0" y1="0" x2="0" y2="282" fill="none" stroke="#040723" stroke-width="4.6" opacity="1" display="block"
            transform="translate(197.18,-40)"></line>
        <line x1="0" y1="0" x2="0" y2="282" fill="none" stroke="#040723" stroke-width="4.6" opacity="1" display="block"
            transform="translate(272.66,-40)"></line>
        <line x1="0" y1="0" x2="0" y2="282" fill="none" stroke="#040723" stroke-width="4.6" opacity="1" display="block"
            transform="translate(348.13999999999993,-40)"></line>
        <line x1="0" y1="0" x2="0" y2="282" fill="none" stroke="#040723" stroke-width="4.6" opacity="1" display="block"
            transform="translate(423.62,-40)"></line>
        <line x1="0" y1="0" x2="0" y2="282" fill="none" stroke="#040723" stroke-width="4.6" opacity="1" display="block"
            transform="translate(499.09999999999997,-40)"></line>
        <defs>
            <clipPath id="clip" transform="translate(0,147)">
                <rect x="0" y="35" height="210" width="70.4" transform="translate(124,0)"
                    style="fill: rgb(36, 219, 225);"></rect>
                <rect x="0" y="-35" height="280" width="70.4" transform="translate(199.48000000000002,0)"
                    style="fill: rgb(36, 219, 225);"></rect>
                <rect x="0" y="0" height="245" width="70.4" transform="translate(274.96000000000004,0)"
                    style="fill: rgb(36, 219, 225);"></rect>
                <rect x="0" y="105" height="140" width="70.4" transform="translate(350.43999999999994,0)"
                    style="fill: rgb(36, 219, 225);"></rect>
                <rect x="0" y="0" height="245" width="70.4" transform="translate(425.92,0)"
                    style="fill: rgb(36, 219, 225);"></rect>
                <rect x="0" y="-35" height="280" width="70.4" transform="translate(501.4,0)"
                    style="fill: rgb(36, 219, 225);"></rect>
                <polygon points="0, 0, 70.4, 0,227.9,168,157.5 ,168" fill="url(#gradient_S0_G0)" opacity="0.8"
                    transform="translate(124,258)"></polygon>
                <polygon points="0, 0, 70.4, 0,280.4,224,210 ,224" fill="url(#gradient_S0_G0)" opacity="0.8"
                    transform="translate(199.48000000000002,258)"></polygon>
                <polygon points="0, 0, 70.4, 0,254.15,196,183.75 ,196" fill="url(#gradient_S0_G0)" opacity="0.8"
                    transform="translate(274.96000000000004,258)"></polygon>
                <polygon points="0, 0, 70.4, 0,175.4,112,105 ,112" fill="url(#gradient_S0_G0)" opacity="0.8"
                    transform="translate(350.43999999999994,258)"></polygon>
                <polygon points="0, 0, 70.4, 0,254.15,196,183.75 ,196" fill="url(#gradient_S0_G0)" opacity="0.8"
                    transform="translate(425.92,258)"></polygon>
                <polygon points="0, 0, 70.4, 0,280.4,224,210 ,224" fill="url(#gradient_S0_G0)" opacity="0.8"
                    transform="translate(501.4,258)"></polygon>
            </clipPath>
        </defs><text x="35.2" y="35" font-size="16" fill="#24DBE1" transform="translate(124,-8)"
            style="text-anchor: middle;">6</text><text x="35.2" y="-35" font-size="16" fill="#24DBE1"
            transform="translate(199.48000000000002,-8)" style="text-anchor: middle;">8</text><text x="35.2" y="0"
            font-size="16" fill="#24DBE1" transform="translate(274.96000000000004,-8)"
            style="text-anchor: middle;">7</text><text x="35.2" y="105" font-size="16" fill="#24DBE1"
            transform="translate(350.43999999999994,-8)" style="text-anchor: middle;">4</text><text x="35.2" y="0"
            font-size="16" fill="#24DBE1" transform="translate(425.92,-8)" style="text-anchor: middle;">7</text><text
            x="35.2" y="-35" font-size="16" fill="#24DBE1" transform="translate(501.4,-8)"
            style="text-anchor: middle;">8</text><text x="104" y="260" font-size="14" fill="#F153F0"
            style="text-anchor: end;" transform="translate(10,-14)">
            <tspan x="104" y="260" dy="0em"></tspan>
            <tspan x="104" y="260" dy="14">2015</tspan>
        </text><text x="580.4" y="260" font-size="14" fill="#F153F0" style="text-anchor: start;"
            transform="translate(10,-14)">
            <tspan x="580.4" y="260" dy="0em"></tspan>
            <tspan x="580.4" y="260" dy="14">2020</tspan>
        </text>
    </g>
    <image clip-path="url(#clip)" xlink:href="https://plotparade.com//55_window/img/ia1.jpg" width="100%" height="100%"></image>
    <g id="logo" transform="translate(450,655 ) scale(0.9)" fill="#24DBE1">
        <path
            d="M15.2,20.3c0.2,0,0.4,0,0.5-0.1c0.2-0.1,0.3-0.1,0.4-0.2s0.2-0.2,0.3-0.4c0.1-0.1,0.1-0.3,0.1-0.4h0.9 c0,0.3-0.1,0.5-0.2,0.7c-0.1,0.2-0.3,0.4-0.5,0.6c-0.2,0.2-0.5,0.3-0.7,0.4c-0.3,0.1-0.6,0.2-0.9,0.2c-0.4,0-0.8-0.1-1.1-0.2 c-0.3-0.2-0.6-0.4-0.8-0.6c-0.2-0.3-0.4-0.6-0.5-0.9c-0.1-0.3-0.2-0.7-0.2-1.1V18c0-0.4,0.1-0.7,0.2-1.1c0.1-0.3,0.3-0.7,0.5-0.9 c0.2-0.3,0.5-0.5,0.8-0.6c0.3-0.2,0.7-0.2,1.1-0.2c0.3,0,0.7,0.1,0.9,0.2c0.3,0.1,0.5,0.3,0.7,0.4c0.2,0.2,0.4,0.4,0.5,0.7 s0.2,0.5,0.2,0.8h-0.9c0-0.2,0-0.3-0.1-0.5c-0.1-0.2-0.2-0.3-0.3-0.4c-0.1-0.1-0.3-0.2-0.4-0.3C15.5,16,15.4,16,15.2,16 c-0.3,0-0.6,0.1-0.8,0.2c-0.2,0.1-0.4,0.3-0.5,0.5c-0.1,0.2-0.2,0.4-0.3,0.7c-0.1,0.2-0.1,0.5-0.1,0.7v0.2c0,0.3,0,0.5,0.1,0.7 c0.1,0.2,0.1,0.5,0.3,0.7c0.1,0.2,0.3,0.4,0.5,0.5C14.6,20.3,14.9,20.3,15.2,20.3z">
        </path>
        <path
            d="M24.6,15.2c0.1,0,0.2,0,0.3,0c0.1,0,0.2,0,0.3,0c0.1,0,0.2,0,0.2,0c0.1,0,0.1,0,0.2,0.1l-0.1,1 c-0.2,0-0.4-0.1-0.5-0.1c-0.2,0-0.4,0-0.5,0c-0.5,0-0.8,0.1-1.1,0.3c-0.3,0.2-0.5,0.5-0.6,0.9V21h-1v-5.8h0.9l0,0.9 c0.2-0.3,0.5-0.6,0.8-0.7C23.8,15.2,24.2,15.2,24.6,15.2z">
        </path>
        <path
            d="M31.6,21.1c-0.4,0-0.8-0.1-1.1-0.2s-0.6-0.3-0.9-0.6c-0.2-0.2-0.4-0.5-0.6-0.9c-0.1-0.3-0.2-0.7-0.2-1.1 v-0.2c0-0.5,0.1-0.9,0.2-1.2c0.1-0.4,0.3-0.7,0.6-0.9c0.2-0.3,0.5-0.4,0.8-0.6c0.3-0.1,0.6-0.2,1-0.2c0.4,0,0.8,0.1,1.1,0.2 c0.3,0.1,0.6,0.3,0.8,0.6c0.2,0.3,0.4,0.6,0.5,0.9c0.1,0.3,0.2,0.7,0.2,1.1v0.4h-4.1c0,0.3,0.1,0.5,0.2,0.7 c0.1,0.2,0.2,0.4,0.4,0.6c0.2,0.2,0.3,0.3,0.6,0.4c0.2,0.1,0.5,0.1,0.7,0.1c0.4,0,0.7-0.1,0.9-0.2c0.3-0.1,0.5-0.3,0.7-0.6l0.6,0.5 c-0.1,0.1-0.2,0.3-0.4,0.4c-0.1,0.1-0.3,0.3-0.5,0.4c-0.2,0.1-0.4,0.2-0.6,0.2C32.1,21.1,31.8,21.1,31.6,21.1z M31.4,16 c-0.2,0-0.4,0-0.6,0.1c-0.2,0.1-0.3,0.2-0.5,0.3c-0.1,0.1-0.3,0.3-0.4,0.5c-0.1,0.2-0.2,0.4-0.2,0.7h3.1v-0.1c0-0.2,0-0.4-0.1-0.6 c-0.1-0.2-0.2-0.4-0.3-0.5c-0.1-0.1-0.3-0.3-0.5-0.4C31.9,16,31.7,16,31.4,16z">
        </path>
        <path
            d="M41.2,21c0-0.1-0.1-0.2-0.1-0.3s0-0.2-0.1-0.3c-0.1,0.1-0.2,0.2-0.3,0.3c-0.1,0.1-0.3,0.2-0.4,0.2 C40.2,21,40,21,39.9,21.1c-0.2,0-0.3,0.1-0.5,0.1c-0.3,0-0.6,0-0.8-0.1c-0.2-0.1-0.5-0.2-0.6-0.4c-0.2-0.2-0.3-0.3-0.4-0.5 s-0.1-0.4-0.1-0.7c0-0.3,0.1-0.6,0.2-0.8c0.1-0.2,0.3-0.4,0.5-0.6c0.2-0.2,0.5-0.3,0.8-0.4c0.3-0.1,0.7-0.1,1.1-0.1h1.1v-0.5 c0-0.2,0-0.3-0.1-0.5c-0.1-0.1-0.2-0.3-0.3-0.4c-0.1-0.1-0.3-0.2-0.4-0.2c-0.2-0.1-0.4-0.1-0.6-0.1c-0.2,0-0.4,0-0.5,0.1 c-0.2,0-0.3,0.1-0.4,0.2c-0.1,0.1-0.2,0.2-0.2,0.3s-0.1,0.2-0.1,0.3h-1c0-0.2,0.1-0.4,0.2-0.6s0.3-0.4,0.5-0.5 c0.2-0.2,0.4-0.3,0.7-0.4c0.3-0.1,0.6-0.1,1-0.1c0.3,0,0.6,0,0.9,0.1c0.3,0.1,0.5,0.2,0.7,0.4c0.2,0.2,0.4,0.4,0.5,0.6 c0.1,0.2,0.2,0.5,0.2,0.8v2.7c0,0.2,0,0.4,0.1,0.6c0,0.2,0.1,0.4,0.1,0.6V21H41.2z M39.5,20.3c0.2,0,0.4,0,0.5-0.1 c0.2-0.1,0.3-0.1,0.5-0.2c0.1-0.1,0.3-0.2,0.4-0.3c0.1-0.1,0.2-0.2,0.2-0.3v-1.2h-0.9c-0.6,0-1,0.1-1.3,0.3 c-0.3,0.2-0.5,0.4-0.5,0.8c0,0.1,0,0.3,0.1,0.4c0,0.1,0.1,0.2,0.2,0.3c0.1,0.1,0.2,0.2,0.4,0.2C39.1,20.2,39.3,20.3,39.5,20.3z">
        </path>
        <path
            d="M48,13.9v1.4h2.2V16H48v3.1c0,0.2,0,0.4,0.1,0.6c0.1,0.1,0.1,0.3,0.2,0.3c0.1,0.1,0.2,0.1,0.3,0.2 c0.1,0,0.3,0.1,0.4,0.1c0.1,0,0.2,0,0.3,0c0.1,0,0.2,0,0.3,0c0.1,0,0.2,0,0.3-0.1c0.1,0,0.2,0,0.2-0.1l0.1,0.7 c-0.1,0-0.2,0.1-0.3,0.1C50,21,49.9,21,49.8,21c-0.1,0-0.3,0-0.4,0.1c-0.2,0-0.3,0-0.5,0c-0.3,0-0.5,0-0.7-0.1 c-0.2-0.1-0.4-0.2-0.6-0.3c-0.2-0.2-0.3-0.4-0.4-0.6c-0.1-0.2-0.1-0.6-0.1-0.9V16h-1.5v-0.8h1.5v-1.4H48z">
        </path>
        <path
            d="M56.4,21.1c-0.4,0-0.8-0.1-1.1-0.2s-0.6-0.3-0.9-0.6c-0.2-0.2-0.4-0.5-0.6-0.9s-0.2-0.7-0.2-1.1v-0.2 c0-0.5,0.1-0.9,0.2-1.2s0.3-0.7,0.6-0.9c0.2-0.3,0.5-0.4,0.8-0.6c0.3-0.1,0.6-0.2,1-0.2c0.4,0,0.8,0.1,1.1,0.2 c0.3,0.1,0.6,0.3,0.8,0.6c0.2,0.3,0.4,0.6,0.5,0.9c0.1,0.3,0.2,0.7,0.2,1.1v0.4h-4.1c0,0.3,0.1,0.5,0.2,0.7 c0.1,0.2,0.2,0.4,0.4,0.6c0.2,0.2,0.3,0.3,0.6,0.4c0.2,0.1,0.5,0.1,0.7,0.1c0.4,0,0.7-0.1,0.9-0.2c0.3-0.1,0.5-0.3,0.7-0.6l0.6,0.5 c-0.1,0.1-0.2,0.3-0.4,0.4c-0.1,0.1-0.3,0.3-0.5,0.4c-0.2,0.1-0.4,0.2-0.6,0.2C57,21.1,56.7,21.1,56.4,21.1z M56.3,16 c-0.2,0-0.4,0-0.6,0.1c-0.2,0.1-0.3,0.2-0.5,0.3c-0.1,0.1-0.3,0.3-0.4,0.5c-0.1,0.2-0.2,0.4-0.2,0.7h3.1v-0.1c0-0.2,0-0.4-0.1-0.6 c-0.1-0.2-0.2-0.4-0.3-0.5c-0.1-0.1-0.3-0.3-0.5-0.4C56.8,16,56.5,16,56.3,16z">
        </path>
        <path
            d="M62.2,18.1c0-0.4,0.1-0.8,0.2-1.2c0.1-0.4,0.3-0.7,0.5-0.9c0.2-0.3,0.4-0.5,0.7-0.6c0.3-0.1,0.6-0.2,1-0.2 c0.3,0,0.6,0.1,0.9,0.2c0.3,0.1,0.5,0.3,0.7,0.5v-3h1V21h-0.9l0-0.6c-0.2,0.2-0.4,0.4-0.7,0.5c-0.3,0.1-0.6,0.2-0.9,0.2 c-0.3,0-0.7-0.1-0.9-0.2c-0.3-0.1-0.5-0.4-0.7-0.6c-0.2-0.3-0.4-0.6-0.5-0.9s-0.2-0.7-0.2-1.2V18.1z M63.2,18.2 c0,0.3,0,0.5,0.1,0.8c0.1,0.3,0.2,0.5,0.3,0.7c0.1,0.2,0.3,0.3,0.5,0.5c0.2,0.1,0.4,0.2,0.7,0.2c0.2,0,0.3,0,0.5-0.1 c0.1,0,0.3-0.1,0.4-0.2c0.1-0.1,0.2-0.2,0.3-0.3c0.1-0.1,0.2-0.2,0.2-0.3v-2.7c-0.1-0.2-0.3-0.4-0.5-0.6c-0.2-0.2-0.5-0.2-0.8-0.2 c-0.3,0-0.5,0.1-0.7,0.2c-0.2,0.1-0.4,0.3-0.5,0.5c-0.1,0.2-0.2,0.4-0.3,0.7c-0.1,0.3-0.1,0.5-0.1,0.8V18.2z">
        </path>
        <path
            d="M80.5,18.9l0.1,0.8l0.1-0.8l0.9-3.7h0.6l0.9,3.7l0.2,0.9l0.1-0.9l0.6-3.7H85L83.8,21H83l-0.9-3.5L82,16.6 l-0.1,0.9L80.9,21h-0.8l-1.2-5.8h0.9L80.5,18.9z">
        </path>
        <path
            d="M88.4,15.3h2.9v4.9h1.9V21h-4.8v-0.9h2v-4h-2V15.3z M90.2,13.7c0-0.2,0-0.3,0.1-0.4 c0.1-0.1,0.2-0.2,0.4-0.2c0.2,0,0.3,0.1,0.4,0.2s0.1,0.2,0.1,0.4c0,0.2,0,0.3-0.1,0.4c-0.1,0.1-0.2,0.2-0.4,0.2 c-0.2,0-0.3-0.1-0.4-0.2C90.3,14,90.2,13.9,90.2,13.7z">
        </path>
        <path
            d="M98.3,13.9v1.4h2.2V16h-2.2v3.1c0,0.2,0,0.4,0.1,0.6c0.1,0.1,0.1,0.3,0.2,0.3c0.1,0.1,0.2,0.1,0.3,0.2 c0.1,0,0.3,0.1,0.4,0.1c0.1,0,0.2,0,0.3,0c0.1,0,0.2,0,0.3,0c0.1,0,0.2,0,0.3-0.1c0.1,0,0.2,0,0.2-0.1l0.1,0.7 c-0.1,0-0.2,0.1-0.3,0.1c-0.1,0-0.2,0.1-0.4,0.1c-0.1,0-0.3,0-0.4,0.1c-0.2,0-0.3,0-0.5,0c-0.3,0-0.5,0-0.7-0.1 c-0.2-0.1-0.4-0.2-0.6-0.3c-0.2-0.2-0.3-0.4-0.4-0.6c-0.1-0.2-0.1-0.6-0.1-0.9V16h-1.5v-0.8h1.5v-1.4H98.3z">
        </path>
        <path
            d="M105.3,16.1c0.2-0.3,0.5-0.5,0.8-0.7c0.3-0.2,0.6-0.3,1-0.3c0.3,0,0.6,0,0.8,0.1c0.2,0.1,0.5,0.2,0.6,0.4 c0.2,0.2,0.3,0.4,0.4,0.7c0.1,0.3,0.1,0.6,0.1,1V21h-1v-3.6c0-0.5-0.1-0.8-0.3-1.1c-0.2-0.2-0.5-0.3-1-0.3c-0.3,0-0.6,0.1-0.9,0.2 c-0.3,0.2-0.5,0.4-0.6,0.6V21h-1v-8.2h1V16.1z">
        </path>
        <circle cx="143.1" cy="15.9" r="2"></circle>
        <circle cx="137.1" cy="10" r="1.1"></circle>
        <circle cx="148.9" cy="21.9" r="1.1"></circle>
        <path
            d="M120.4,16.8V21h-0.8V10.8h3.2c0.4,0,0.9,0.1,1.3,0.2s0.7,0.3,1,0.6c0.3,0.3,0.5,0.6,0.7,0.9 c0.2,0.4,0.3,0.8,0.3,1.3c0,0.5-0.1,0.9-0.3,1.2c-0.2,0.4-0.4,0.7-0.7,0.9c-0.3,0.3-0.6,0.4-1,0.6c-0.4,0.1-0.8,0.2-1.3,0.2H120.4z  M120.4,16.1h2.4c0.3,0,0.6-0.1,0.9-0.2c0.3-0.1,0.5-0.3,0.8-0.4c0.2-0.2,0.4-0.4,0.5-0.7c0.1-0.3,0.2-0.6,0.2-0.9 c0-0.3-0.1-0.7-0.2-1c-0.1-0.3-0.3-0.5-0.5-0.7s-0.5-0.4-0.8-0.5s-0.6-0.2-0.9-0.2h-2.4V16.1z">
        </path>
        <path d="M131.5,20.3h5.2V21h-6V10.8h0.8V20.3z"></path>
        <path d="M158.5,11.6h-3.2V21h-0.8l0-9.4h-3.3v-0.7h7.3V11.6z"></path>
        <path
            d="M169.6,16.8V21h-0.8V10.8h3.2c0.4,0,0.9,0.1,1.3,0.2s0.7,0.3,1,0.6c0.3,0.3,0.5,0.6,0.7,0.9 c0.2,0.4,0.3,0.8,0.3,1.3c0,0.5-0.1,0.9-0.3,1.2c-0.2,0.4-0.4,0.7-0.7,0.9c-0.3,0.3-0.6,0.4-1,0.6s-0.8,0.2-1.3,0.2H169.6z M169.6,16.1h2.4c0.3,0,0.6-0.1,0.9-0.2c0.3-0.1,0.5-0.3,0.8-0.4c0.2-0.2,0.4-0.4,0.5-0.7s0.2-0.6,0.2-0.9c0-0.3-0.1-0.7-0.2-1 c-0.1-0.3-0.3-0.5-0.5-0.7c-0.2-0.2-0.5-0.4-0.8-0.5c-0.3-0.1-0.6-0.2-0.9-0.2h-2.4V16.1z">
        </path>
        <path
            d="M184.1,18.2h-3.9l-0.9,2.8h-0.8l3.3-10.2h0.8l3.3,10.2h-0.8L184.1,18.2z M180.4,17.4h3.4l-1.7-5.4 L180.4,17.4z">
        </path>
        <path
            d="M193.7,16.7h-2.5V21h-0.8V10.8h2.9c0.4,0,0.9,0.1,1.3,0.2c0.4,0.1,0.7,0.3,1,0.6c0.3,0.3,0.5,0.6,0.7,0.9 c0.2,0.4,0.3,0.8,0.3,1.3c0,0.3-0.1,0.7-0.2,0.9s-0.2,0.5-0.4,0.8c-0.2,0.2-0.4,0.4-0.6,0.6c-0.2,0.2-0.5,0.3-0.8,0.4l2.3,4.4V21 h-0.9L193.7,16.7z M191.2,16h2.2c0.3,0,0.6-0.1,0.9-0.2c0.3-0.1,0.5-0.3,0.7-0.5c0.2-0.2,0.4-0.4,0.5-0.7c0.1-0.3,0.2-0.6,0.2-0.9 c0-0.4-0.1-0.7-0.2-1s-0.3-0.5-0.5-0.7s-0.5-0.3-0.8-0.4c-0.3-0.1-0.6-0.2-1-0.2h-2V16z">
        </path>
        <path
            d="M206.7,18.2h-3.9L202,21h-0.8l3.3-10.2h0.8l3.3,10.2h-0.8L206.7,18.2z M203.1,17.4h3.4l-1.7-5.4 L203.1,17.4z">
        </path>
        <path
            d="M212.9,21V10.8h2.5c0.7,0,1.2,0.1,1.7,0.4c0.5,0.2,0.9,0.6,1.3,1c0.4,0.4,0.6,0.9,0.8,1.5 s0.3,1.1,0.3,1.8v1c0,0.6-0.1,1.2-0.3,1.8s-0.5,1-0.8,1.5c-0.4,0.4-0.8,0.7-1.3,1c-0.5,0.2-1.1,0.4-1.7,0.4H212.9z M213.8,11.5 v8.8h1.6c0.5,0,1-0.1,1.4-0.3c0.4-0.2,0.8-0.5,1-0.9c0.3-0.4,0.5-0.8,0.6-1.2c0.1-0.5,0.2-0.9,0.2-1.5v-1c0-0.5-0.1-1-0.2-1.4 c-0.1-0.5-0.4-0.9-0.6-1.2c-0.3-0.4-0.6-0.6-1-0.9s-0.9-0.3-1.4-0.3H213.8z">
        </path>
        <path d="M229.7,16.1h-4.5v4.2h5.2V21h-6V10.8h6v0.7h-5.1v3.8h4.5V16.1z"></path>
    </g><text x="160" y="40" font-size="14" opacity="0.7" fill="#24DBE1" class="title fontBold"
        style="text-anchor: start;">Untitled chart</text><text x="160" y="60" font-size="12" opacity="0.7"
        fill="#24DBE1" class="unit fontReg" transform="translate(0,0)"
        style="text-anchor: start;">(subtitle)</text><text x="40" y="674" font-size="12" fill="#24DBE1" opacity="0.7"
        class="datasrc fontReg" style="text-anchor: start;">source: credit your data source</text>
</svg>